<svg xmlns="http://www.w3.org/2000/svg" width="12" height="11" viewBox="0 0 12 11">
  <metadata><?xpacket begin="﻿" id="W5M0MpCehiHzreSzNTczkc9d"?>
<x:xmpmeta xmlns:x="adobe:ns:meta/" x:xmptk="Adobe XMP Core 5.6-c138 79.159824, 2016/09/14-01:09:01        ">
   <rdf:RDF xmlns:rdf="http://www.w3.org/1999/02/22-rdf-syntax-ns#">
      <rdf:Description rdf:about=""/>
   </rdf:RDF>
</x:xmpmeta>
                                                                                                    
                                                                                                    
                                                                                                    
                                                                                                    
                                                                                                    
                                                                                                    
                                                                                                    
                                                                                                    
                                                                                                    
                                                                                                    
                                                                                                    
                                                                                                    
                                                                                                    
                                                                                                    
                                                                                                    
                                                                                                    
                                                                                                    
                                                                                                    
                                                                                                    
                                                                                                    
                           
<?xpacket end="w"?></metadata>
<defs>
    <style>
      .cls-1 {
        fill: #888;
        fill-rule: evenodd;
      }
    </style>
  </defs>
  <path id="Forma_1" data-name="Forma 1" class="cls-1" d="M881.152,441.39q0.228,0.188,1.372,1.114t1.755,1.426c0.045,0.036.139,0.116,0.284,0.238s0.266,0.222.362,0.3,0.212,0.16.348,0.254a1.915,1.915,0,0,0,.385.211,0.931,0.931,0,0,0,.335.07h0.014a0.931,0.931,0,0,0,.335-0.07,1.915,1.915,0,0,0,.385-0.211c0.136-.094.252-0.178,0.348-0.254s0.216-.175.361-0.3,0.24-.2.285-0.238l3.134-2.54a3.515,3.515,0,0,0,.817-0.961,2.3,2.3,0,0,0,.328-1.18,1.3,1.3,0,0,0-.318-0.883,0.967,0.967,0,0,0-.754-0.367h-9.857a0.9,0.9,0,0,0-.793.406,1.762,1.762,0,0,0-.278,1.016,2.013,2.013,0,0,0,.368,1.067A3.644,3.644,0,0,0,881.152,441.39Zm10.178,0.836q-2.2,1.736-3.334,2.7c-0.255.219-.461,0.39-0.62,0.512a3.668,3.668,0,0,1-.633.375,1.692,1.692,0,0,1-.736.191h-0.014a1.692,1.692,0,0,1-.736-0.191,3.668,3.668,0,0,1-.633-0.375c-0.159-.122-0.365-0.293-0.62-0.512q-0.9-.774-3.328-2.7a3.752,3.752,0,0,1-.676-0.68v6.2a1.311,1.311,0,0,0,.315.883,0.962,0.962,0,0,0,.756.367h9.858a0.963,0.963,0,0,0,.756-0.367,1.311,1.311,0,0,0,.315-0.883v-6.2A3.916,3.916,0,0,1,891.33,442.226Z" transform="translate(-880 -438)"/>
</svg>
