<svg xmlns="http://www.w3.org/2000/svg" width="14" height="19" viewBox="0 0 14 19">
  <metadata><?xpacket begin="﻿" id="W5M0MpCehiHzreSzNTczkc9d"?>
<x:xmpmeta xmlns:x="adobe:ns:meta/" x:xmptk="Adobe XMP Core 5.6-c138 79.159824, 2016/09/14-01:09:01        ">
   <rdf:RDF xmlns:rdf="http://www.w3.org/1999/02/22-rdf-syntax-ns#">
      <rdf:Description rdf:about=""/>
   </rdf:RDF>
</x:xmpmeta>
                                                                                                    
                                                                                                    
                                                                                                    
                                                                                                    
                                                                                                    
                                                                                                    
                                                                                                    
                                                                                                    
                                                                                                    
                                                                                                    
                                                                                                    
                                                                                                    
                                                                                                    
                                                                                                    
                                                                                                    
                                                                                                    
                                                                                                    
                                                                                                    
                                                                                                    
                                                                                                    
                           
<?xpacket end="w"?></metadata>
<defs>
    <style>
      .cls-1 {
        fill: #888;
        fill-rule: evenodd;
      }
    </style>
  </defs>
  <path class="cls-1" d="M883.462,515.963a2.532,2.532,0,0,1,5.064,0v2.519h2.457v-2.519a4.989,4.989,0,0,0-9.978,0v2.519h2.457v-2.519Zm8.176,3.338H880.35a1.349,1.349,0,0,0-1.35,1.343v8.013A1.35,1.35,0,0,0,880.35,530h11.3a1.349,1.349,0,0,0,1.35-1.343v-8.013A1.347,1.347,0,0,0,891.638,519.3Zm-4.536,7.742h-2.216l0.441-2.34a1.309,1.309,0,1,1,1.985-1.118,1.281,1.281,0,0,1-.651,1.118Z" transform="translate(-879 -511)"/>
</svg>
