<svg xmlns="http://www.w3.org/2000/svg" width="91.532" height="24.625" viewBox="0 0 91.532 24.625">
  <metadata><?xpacket begin="﻿" id="W5M0MpCehiHzreSzNTczkc9d"?>
<x:xmpmeta xmlns:x="adobe:ns:meta/" x:xmptk="Adobe XMP Core 5.6-c138 79.159824, 2016/09/14-01:09:01        ">
   <rdf:RDF xmlns:rdf="http://www.w3.org/1999/02/22-rdf-syntax-ns#">
      <rdf:Description rdf:about=""/>
   </rdf:RDF>
</x:xmpmeta>
                                                                                                    
                                                                                                    
                                                                                                    
                                                                                                    
                                                                                                    
                                                                                                    
                                                                                                    
                                                                                                    
                                                                                                    
                                                                                                    
                                                                                                    
                                                                                                    
                                                                                                    
                                                                                                    
                                                                                                    
                                                                                                    
                                                                                                    
                                                                                                    
                                                                                                    
                                                                                                    
                           
<?xpacket end="w"?></metadata>
<defs>
    <style>
      .cls-1 {
        fill: #3a405b;
        fill-rule: evenodd;
      }
    </style>
  </defs>
  <path id="Portland" class="cls-1" d="M485.037,422.425a1.737,1.737,0,0,0,.885.237,1.885,1.885,0,0,0,1.346-.408,3.021,3.021,0,0,0,.687-1.1,14.016,14.016,0,0,0,.514-1.518q0.251-.885.489-1.9t0.449-2.073q0.21-1.054.422-2.059a12.07,12.07,0,0,0,4.594-1.083,12.534,12.534,0,0,0,3.4-2.309,10.761,10.761,0,0,0,2.192-2.97,9.264,9.264,0,0,0,.95-3.09,7.566,7.566,0,0,0-.079-1.847,5.758,5.758,0,0,0-.7-2.007,4.684,4.684,0,0,0-1.557-1.61,4.855,4.855,0,0,0-2.68-.66,13.584,13.584,0,0,0-3.036.316,14.7,14.7,0,0,0-2.4.753,11.578,11.578,0,0,0-1.729.884c-0.466.3-.814,0.528-1.043,0.687a1.2,1.2,0,0,0-.66.871,2.17,2.17,0,0,0,.159.818,2.09,2.09,0,0,0,.185.344,2.215,2.215,0,0,0,.528.634q0.449-.476.924-0.911c0.316-.291.616-0.55,0.9-0.78a9.371,9.371,0,0,1,.977-0.712q-0.185.66-.5,1.848t-0.712,2.653q-0.4,1.466-.819,3.089t-0.831,3.155q-0.41,1.531-.753,2.878t-0.554,2.217a21.21,21.21,0,0,1-.766,2.587,9.733,9.733,0,0,1-.673,1.452,2.8,2.8,0,0,1-.528.687c-0.149.122-.26,0.211-0.33,0.263A2.769,2.769,0,0,0,485.037,422.425Zm5.954-14.731q0.237-1.083.646-2.8t1.043-4.277a1,1,0,0,0-.237-0.449,0.535,0.535,0,0,0-.185-0.132,9.322,9.322,0,0,1,1.267-.475,4.605,4.605,0,0,1,1.294-.185,4.391,4.391,0,0,1,1.373.225,2.981,2.981,0,0,1,1.214.765,3.5,3.5,0,0,1,.805,1.426,5.589,5.589,0,0,1,.145,2.2,8.714,8.714,0,0,1-.594,2.5,8.625,8.625,0,0,1-1.148,2.006,9.459,9.459,0,0,1-1.518,1.557,11.317,11.317,0,0,1-1.7,1.149,9.953,9.953,0,0,1-1.742.752,10.171,10.171,0,0,1-1.584.383q0.158-.844.277-1.518t0.2-1.1q0.158-.765.449-2.032h0ZM510.052,413q0.871-.528,1.61-1.083t1.281-1.029a7.993,7.993,0,0,0,.673-0.634,1.324,1.324,0,0,0,.29-0.528,0.505,0.505,0,0,0-.026-0.37,0.242,0.242,0,0,0-.264-0.105,0.942,0.942,0,0,0-.449.264,8.016,8.016,0,0,1-.845.713q-0.528.4-1.148,0.778t-1.281.727a13.2,13.2,0,0,1-1.267.581c0.017-.141.035-0.313,0.053-0.515s0.026-.374.026-0.515a3.964,3.964,0,0,0-1.175-2.957,3.651,3.651,0,0,0-1-.713,2.631,2.631,0,0,0-.858-0.264c-0.053-.017-0.1-0.035-0.145-0.053a0.4,0.4,0,0,0-.145-0.026,4.187,4.187,0,0,0-.977.119,4.119,4.119,0,0,0-.937.343,2.865,2.865,0,0,0-.766.568,2.172,2.172,0,0,0-.488.791,6.24,6.24,0,0,0-.779,1.162,8.621,8.621,0,0,0-.541,1.268,9.9,9.9,0,0,0-.33,1.241,5.821,5.821,0,0,0-.119,1.108q0,0.713.066,1.531a4.589,4.589,0,0,0,.37,1.5,2.835,2.835,0,0,0,.924,1.148,2.792,2.792,0,0,0,1.7.463,4.037,4.037,0,0,0,1.7-.357,4.653,4.653,0,0,0,1.4-.99,6.173,6.173,0,0,0,1.07-1.5,9.164,9.164,0,0,0,.712-1.874A8.294,8.294,0,0,0,510.052,413Zm-5.267-4a1.835,1.835,0,0,1,.963-0.278,0.674,0.674,0,0,1,.542.278,2.277,2.277,0,0,1,.369.712,4.418,4.418,0,0,1,.2.964,5.054,5.054,0,0,1,0,1.029,2.147,2.147,0,0,1-.066.489c-0.044.184-.092,0.392-0.145,0.62-0.088.018-.176,0.031-0.264,0.04a2.592,2.592,0,0,1-.264.013,2.706,2.706,0,0,1-1.28-.251,1.654,1.654,0,0,1-.674-0.62,2.164,2.164,0,0,1-.264-0.832,7.838,7.838,0,0,1-.052-0.884,1.571,1.571,0,0,1,.079-0.5A3.216,3.216,0,0,1,504.785,409Zm-2.442,4.421c0.07-.351.158-0.713,0.264-1.082a3.917,3.917,0,0,0,1.122,1.518,2.644,2.644,0,0,0,1.729.594c0.141,0,.268,0,0.383-0.014s0.233-.021.356-0.039a7.29,7.29,0,0,1-.435.964,4.372,4.372,0,0,1-.568.818,2.77,2.77,0,0,1-.713.581,1.731,1.731,0,0,1-.871.224,1.017,1.017,0,0,1-.686-0.224,1.587,1.587,0,0,1-.423-0.581,2.792,2.792,0,0,1-.211-0.818,8.3,8.3,0,0,1-.053-0.937A5.091,5.091,0,0,1,502.343,413.422Zm8.276,3.789,0.806-1.32q0.474-.779,1.016-1.676t1.03-1.717q0.488-.818.858-1.425t0.475-.792a2.827,2.827,0,0,1,.449.158,1.414,1.414,0,0,0,.58.106c0.159,0,.278,0,0.357-0.013a1.706,1.706,0,0,1,.185-0.013,0.666,0.666,0,0,0,.132-0.014,1.382,1.382,0,0,1,.224-0.013,0.365,0.365,0,0,1,.343.185,0.839,0.839,0,0,1,.106.422,2.108,2.108,0,0,1-.277.911q-0.278.541-.726,1.307c-0.124.246-.26,0.5-0.41,0.752s-0.29.511-.422,0.766-0.247.5-.343,0.739a2.3,2.3,0,0,0-.172.673,2.687,2.687,0,0,0,.093.858,2.472,2.472,0,0,0,.4.845,2.339,2.339,0,0,0,.726.647,2.219,2.219,0,0,0,1.135.264,2.9,2.9,0,0,0,1.386-.4,8.538,8.538,0,0,0,1.452-1.017,13.485,13.485,0,0,0,1.386-1.373q0.66-.751,1.2-1.465t0.924-1.293q0.382-.581.541-0.845a1,1,0,0,0,.2-0.633,0.394,0.394,0,0,0-.2-0.317,0.446,0.446,0,0,0-.369,0,0.673,0.673,0,0,0-.343.29q-0.159.211-.489,0.686t-0.805,1.07q-0.476.594-1.03,1.214a14.893,14.893,0,0,1-1.122,1.135,7.4,7.4,0,0,1-1.109.845,1.936,1.936,0,0,1-.99.33,0.872,0.872,0,0,1-.739-0.211,1.465,1.465,0,0,1-.185-0.554,2.059,2.059,0,0,1,.317-1.189c0.247-.439.493-0.836,0.739-1.187q0.607-.846,1.03-1.558a2.169,2.169,0,0,0,.343-1.373,4.537,4.537,0,0,0-.119-0.7,2.774,2.774,0,0,0-.277-0.712,1.8,1.8,0,0,0-.475-0.555,1.172,1.172,0,0,0-.739-0.224,1.964,1.964,0,0,0-.541.053,2.312,2.312,0,0,1-.594.052,1,1,0,0,1-.423-0.066,1.909,1.909,0,0,1-.211-0.118,2.554,2.554,0,0,0,.4-0.951,2.594,2.594,0,0,0,.053-0.871,2.245,2.245,0,0,0-.357-0.977,1.14,1.14,0,0,0-1.042-.476,1.271,1.271,0,0,0-.819.37,4.419,4.419,0,0,0-.765.885,5.358,5.358,0,0,0-.555,1.069,1.838,1.838,0,0,0-.158.9,1.058,1.058,0,0,0,.158.515,5.4,5.4,0,0,0,.4.383c-0.105.194-.273,0.506-0.5,0.938s-0.48.919-.753,1.465-0.559,1.121-.858,1.729-0.576,1.17-.831,1.69-0.476.963-.66,1.333l-0.357.713a0.791,0.791,0,0,0-.105.528,0.371,0.371,0,0,0,.224.277,0.524,0.524,0,0,0,.4-0.027,0.928,0.928,0,0,0,.409-0.382Q510.29,417.753,510.619,417.211Zm20.764-5.175q-0.4.515-.924,1.149t-1.148,1.293q-0.621.66-1.228,1.215a6.859,6.859,0,0,1-1.175.884,1.567,1.567,0,0,1-.963.277,1.374,1.374,0,0,1-.845-0.316,2,2,0,0,1-.488-0.858,4,4,0,0,1-.04-1.729q0.685-1.584,1.241-2.984t0.95-2.482q0.448-1.239.792-2.3a7.579,7.579,0,0,0,.251-0.859q0.091-.408.2-0.831c0.141,0,.277,0,0.409-0.013s0.251-.013.357-0.013q0.844,0,1.478.052t1.1,0.106a7.146,7.146,0,0,1,.792.132,4.368,4.368,0,0,0,.594.106,0.572,0.572,0,0,0,.475-0.106,0.9,0.9,0,0,0,.3-0.383,0.979,0.979,0,0,0,.08-0.435,0.263,0.263,0,0,0-.2-0.264c-0.124-.035-0.308-0.1-0.555-0.2a7.584,7.584,0,0,0-.977-0.289q-0.607-.147-1.465-0.265a14.5,14.5,0,0,0-1.967-.119,14.267,14.267,0,0,0,.291-2.217,2.479,2.479,0,0,0-.106-1.083,0.644,0.644,0,0,0-.422-0.2,2.371,2.371,0,0,0-.607,0,3.149,3.149,0,0,0-.594.132,0.647,0.647,0,0,0-.357.224,5.751,5.751,0,0,0-.594,1.308q-0.33.938-.673,2.2-0.448.08-.911,0.132t-0.963.079a11.972,11.972,0,0,1-1.268-.013q-0.58-.039-1.082-0.092a0.62,0.62,0,0,0-.356.145,1.36,1.36,0,0,0-.33.343,0.945,0.945,0,0,0-.159.4,0.283,0.283,0,0,0,.185.3,6.789,6.789,0,0,0,2.719.58,7.112,7.112,0,0,0,.819-0.052l0.9-.106q-0.37,1.532-.7,3.181t-0.594,3.089q-0.265,1.44-.423,2.534t-0.185,1.518a3.391,3.391,0,0,0,.08,1.1,3.223,3.223,0,0,0,.462,1.1,2.731,2.731,0,0,0,.91.845,2.824,2.824,0,0,0,1.452.343,2.758,2.758,0,0,0,1.5-.66,13.578,13.578,0,0,0,1.848-1.677,24.412,24.412,0,0,0,1.809-2.178,17.235,17.235,0,0,0,1.386-2.165,1.053,1.053,0,0,0,.145-0.5,0.344,0.344,0,0,0-.119-0.264,0.32,0.32,0,0,0-.277-0.039,0.443,0.443,0,0,0-.277.2Q531.779,411.522,531.383,412.036Zm-1.188,5.993a1.793,1.793,0,0,0,.317.278,1.661,1.661,0,0,0,.37.158,3.3,3.3,0,0,0,.4.026,1.264,1.264,0,0,0,.343-0.053,0.733,0.733,0,0,0,.317-0.184q1.213-4.779,2.019-7.921t1.281-4.963q0.553-2.138.871-3.273,0.132-.581.238-1.083c0.035-.281.056-0.554,0.066-0.818a0.65,0.65,0,0,0-.146-0.529,0.3,0.3,0,0,0-.237-0.171,1.927,1.927,0,0,0-.4-0.039,3.073,3.073,0,0,0-.528.052c-0.194.036-.388,0.079-0.581,0.133q-0.237.053-.488,0.131a2.055,2.055,0,0,0-.463.211,3.909,3.909,0,0,1,.08.819,7.038,7.038,0,0,1-.053.871c-0.036.317-.079,0.643-0.132,0.977q-0.159.712-.581,2.561-0.371,1.557-1.069,4.514t-1.861,7.841A1.085,1.085,0,0,0,530.2,418.029Zm20-6.032a0.632,0.632,0,0,0-.04-0.475,0.285,0.285,0,0,0-.317-0.119,0.778,0.778,0,0,0-.422.277c-0.106.141-.277,0.36-0.515,0.66s-0.506.642-.8,1.03-0.621.787-.964,1.2-0.673.792-.99,1.135a7.7,7.7,0,0,1-.9.845,1.251,1.251,0,0,1-.686.33,0.727,0.727,0,0,1-.488-0.146,0.827,0.827,0,0,1-.251-0.382,1.906,1.906,0,0,1-.093-0.515,3.192,3.192,0,0,1,.014-0.515q0.078-.4.132-0.66c0.035-.175.066-0.33,0.092-0.462s0.053-.264.079-0.4,0.057-.277.093-0.435q0.262-1.215.422-1.981t0.238-1.214a4.234,4.234,0,0,0,.079-0.62,0.622,0.622,0,0,0-.026-0.225,0.571,0.571,0,0,0-.212-0.026c-0.088,0-.215.009-0.383,0.026a6.167,6.167,0,0,0-.62.106,1.9,1.9,0,0,0,.436-1.36,1.266,1.266,0,0,0-.489-0.779,3.213,3.213,0,0,0-1.161-.422,2.968,2.968,0,0,0-1.532.422,7.85,7.85,0,0,0-1.874,1.413,11.719,11.719,0,0,0-1.756,2.257,9.77,9.77,0,0,0-1.174,2.931,6.344,6.344,0,0,0-.212,2.046,3.677,3.677,0,0,0,.37,1.4,1.962,1.962,0,0,0,.713.792,1.565,1.565,0,0,0,.792.251,5.7,5.7,0,0,0,1.584-.344,6.283,6.283,0,0,0,1.452-.831,5.509,5.509,0,0,0,1.4-1.624,4.324,4.324,0,0,0,.092,1.188,4.674,4.674,0,0,0,.251.766,1.4,1.4,0,0,0,.4.528,1.575,1.575,0,0,0,.555.224,2.4,2.4,0,0,0,.673.039,3.166,3.166,0,0,0,.7-0.131,2.819,2.819,0,0,0,.607-0.264,5.975,5.975,0,0,0,.99-0.911q0.594-.647,1.214-1.426t1.2-1.557q0.58-.779.951-1.307A2,2,0,0,0,550.194,412Zm-8.343,2.323a6.4,6.4,0,0,1-.5.634,6.263,6.263,0,0,1-.686.66,4.331,4.331,0,0,1-.766.514,1.774,1.774,0,0,1-.752.212,0.863,0.863,0,0,1-.66-0.277,1.172,1.172,0,0,1-.211-0.674,5.1,5.1,0,0,1,.039-1.2,9.367,9.367,0,0,1,.33-1.465,7.043,7.043,0,0,1,.634-1.465,8.984,8.984,0,0,1,1.676-2.284q0.726-.62,1.017-0.383a0.62,0.62,0,0,1,.105.291,1.461,1.461,0,0,1-.013.435,2.414,2.414,0,0,1-.251.7,3.7,3.7,0,0,1,.423-0.08,1.36,1.36,0,0,0,.343-0.079,2.575,2.575,0,0,1,.29-0.079q0.107-.025.04,0.409t-0.2,1.1q-0.132.66-.317,1.373t-0.317,1.241A1.387,1.387,0,0,1,541.851,414.32Zm15.259,3.973a7.735,7.735,0,0,0,1.307-.924,12.318,12.318,0,0,0,1.267-1.267q0.608-.7,1.136-1.386t0.91-1.294q0.382-.606.568-0.977a1.647,1.647,0,0,0,.211-0.7,0.413,0.413,0,0,0-.118-0.357,0.328,0.328,0,0,0-.33.027,1.321,1.321,0,0,0-.449.449q-0.343.528-1,1.386t-1.4,1.676a12.669,12.669,0,0,1-1.465,1.4,2.135,2.135,0,0,1-1.2.58,0.442,0.442,0,0,1-.515-0.422,2.872,2.872,0,0,1,.119-1q0.289-.9.488-1.649c0.132-.5.242-0.937,0.33-1.308l0.291-1.161a4.812,4.812,0,0,0,.2-1.558,3.585,3.585,0,0,0-.264-1.227,1.932,1.932,0,0,0-.621-0.8,1.477,1.477,0,0,0-.9-0.291,2.972,2.972,0,0,0-1.188.251,5.094,5.094,0,0,0-1.1.647,6.9,6.9,0,0,0-.95.884,11.812,11.812,0,0,0-.779.964c0.105-.3.193-0.589,0.264-0.872q0.105-.369.211-0.7c0.07-.219.132-0.392,0.185-0.514a1.061,1.061,0,0,0-.357-0.2,2.161,2.161,0,0,0-.382-0.093,3.531,3.531,0,0,0-.423-0.026,1.828,1.828,0,0,0-.449.1,2.367,2.367,0,0,0-.409.145,1.681,1.681,0,0,0-.383.251q-0.264,1-.462,1.848t-0.33,1.479q-0.158.74-.29,1.346-0.184.767-.4,1.61t-0.409,1.6q-0.2.751-.343,1.306c-0.1.37-.154,0.607-0.172,0.713q-0.052.239,0.277,0.238a2.416,2.416,0,0,0,.779-0.158,4.2,4.2,0,0,0,.845-0.41,1.021,1.021,0,0,0,.475-0.515c0.053-.246.114-0.506,0.185-0.779s0.145-.589.224-0.95,0.172-.765.277-1.215,0.238-.971.4-1.57q0.448-.66.911-1.28a10.951,10.951,0,0,1,.924-1.1,4.891,4.891,0,0,1,.911-0.753,1.665,1.665,0,0,1,.871-0.277,0.446,0.446,0,0,1,.449.383,2.828,2.828,0,0,1,.053.977,9.456,9.456,0,0,1-.225,1.32q-0.171.726-.369,1.452t-0.383,1.346q-0.185.621-.264,0.99a2.647,2.647,0,0,0-.053,1.043,2.009,2.009,0,0,0,.343.858,1.919,1.919,0,0,0,.7.594,2.246,2.246,0,0,0,1.043.224A2.546,2.546,0,0,0,557.11,418.293Zm13.438-8.131q0.753-1.464,1.334-2.93a24.655,24.655,0,0,0,.937-2.838,12.491,12.491,0,0,0,.409-2.535,10.611,10.611,0,0,0,0-1.5,2.378,2.378,0,0,0-.2-0.832,0.644,0.644,0,0,0-.357-0.343,1.623,1.623,0,0,0-.475-0.066,1.421,1.421,0,0,0-.449.08,2.75,2.75,0,0,0-.448.158,2.337,2.337,0,0,0-.5.316q-0.423,1.4-.766,2.667t-0.607,2.245q-0.291,1.134-.554,2.111-0.159.66-.317,1.4t-0.343,1.5a4.865,4.865,0,0,0-.251-0.792,3.592,3.592,0,0,0-.436-0.779,2.211,2.211,0,0,0-.633-0.58,1.547,1.547,0,0,0-.819-0.225,4.022,4.022,0,0,0-2.046.594,6.521,6.521,0,0,0-1.821,1.611,9.034,9.034,0,0,0-1.334,2.389,9.426,9.426,0,0,0-.607,2.9,4.813,4.813,0,0,0,.159,1.663,3.4,3.4,0,0,0,.541,1.109,1.949,1.949,0,0,0,.752.607,1.99,1.99,0,0,0,.792.185,3.98,3.98,0,0,0,2.152-.726,11.217,11.217,0,0,0,2.231-1.967q-0.054.45-.079,0.634a2.151,2.151,0,0,0,.118.845,2.646,2.646,0,0,0,.41.765,2.336,2.336,0,0,0,.594.555,1.279,1.279,0,0,0,.7.211,2.448,2.448,0,0,0,1.122-.33,8.94,8.94,0,0,0,1.294-.858A13.8,13.8,0,0,0,572.4,416.2q0.674-.687,1.281-1.4t1.109-1.386q0.5-.673.818-1.175a1.023,1.023,0,0,0,.211-0.528,0.344,0.344,0,0,0-.105-0.29,0.359,0.359,0,0,0-.278-0.053,0.61,0.61,0,0,0-.33.185c-0.088.088-.25,0.282-0.488,0.581s-0.528.647-.871,1.042-0.718.815-1.122,1.255-0.81.845-1.215,1.214a10.564,10.564,0,0,1-1.148.924,1.741,1.741,0,0,1-.911.37,0.777,0.777,0,0,1-.581-0.291,1.309,1.309,0,0,1-.237-0.95c0.017-.3.066-0.695,0.145-1.188s0.162-1.012.251-1.558A29.6,29.6,0,0,0,570.548,410.162Zm-3.933,4.053a14.626,14.626,0,0,1-1,1.082,7.359,7.359,0,0,1-1.108.9,1.954,1.954,0,0,1-1.043.369,1.148,1.148,0,0,1-1-.554,3.147,3.147,0,0,1-.317-1.822,6.506,6.506,0,0,1,.422-1.8,10.17,10.17,0,0,1,.924-1.888,8.183,8.183,0,0,1,1.188-1.5,1.821,1.821,0,0,1,1.241-.621,0.768,0.768,0,0,1,.66.33,2.373,2.373,0,0,1,.356.765,4.244,4.244,0,0,1,.146.845c0.017,0.273.026,0.462,0.026,0.568a0.791,0.791,0,0,0,.106.462,0.3,0.3,0,0,0,.4.013,0.7,0.7,0,0,0,.092-0.053,1.043,1.043,0,0,1,.092-0.052q-0.132.528-.224,1.029t-0.2,1Q567.076,413.66,566.615,414.215Z" transform="translate(-484.281 -398.031)"/>
</svg>
