<svg xmlns="http://www.w3.org/2000/svg" width="12" height="16" viewBox="0 0 12 16">
  <metadata><?xpacket begin="﻿" id="W5M0MpCehiHzreSzNTczkc9d"?>
<x:xmpmeta xmlns:x="adobe:ns:meta/" x:xmptk="Adobe XMP Core 5.6-c138 79.159824, 2016/09/14-01:09:01        ">
   <rdf:RDF xmlns:rdf="http://www.w3.org/1999/02/22-rdf-syntax-ns#">
      <rdf:Description rdf:about=""/>
   </rdf:RDF>
</x:xmpmeta>
                                                                                                    
                                                                                                    
                                                                                                    
                                                                                                    
                                                                                                    
                                                                                                    
                                                                                                    
                                                                                                    
                                                                                                    
                                                                                                    
                                                                                                    
                                                                                                    
                                                                                                    
                                                                                                    
                                                                                                    
                                                                                                    
                                                                                                    
                                                                                                    
                                                                                                    
                                                                                                    
                           
<?xpacket end="w"?></metadata>
<defs>
    <style>
      .cls-1 {
        fill: #7b7b7b;
        fill-rule: evenodd;
      }
    </style>
  </defs>
  <path id="Forma_1" data-name="Forma 1" class="cls-1" d="M886,368.825c1.754,0,3.176-1.752,3.176-3.913S888.709,361,886,361s-3.177,1.752-3.177,3.912S884.245,368.825,886,368.825Zm-6,5.974c0-.132,0-0.037,0,0h0Zm12,0.1c0-.036,0-0.25,0,0h0Zm-0.007-.261c-0.059-3.764-.543-4.837-4.253-5.516a2.579,2.579,0,0,1-3.479,0c-3.669.672-4.183,1.728-4.251,5.394a0.791,0.791,0,0,1-.009.28c0,0.065,0,.185,0,0.4,0,0,.883,1.806,6,1.806s6-1.806,6-1.806V374.9A2.451,2.451,0,0,1,891.992,374.641Z" transform="translate(-880 -361)"/>
</svg>
